<svg viewBox="0 0 146.186 60" xmlns="http://www.w3.org/2000/svg" xmlns:xlink="http://www.w3.org/1999/xlink" overflow="hidden"><g id="78abb873-6a03-4ae5-9ee2-3ca87bb295cc" fill="#FFFFFF" transform="matrix(1.1602 0 0 1.1602 -1.16021 -44.2537)"><path d="M90.716 58.23C90.8214 58.1693 90.9396 58.1343 91.061 58.128L90.41 49.907 74.959 58.805 82.338 63.053 90.716 58.23ZM38.218 79.959 37.434 89.857 63.781 74.688 55.426 70.053ZM38.148 49.908 37.498 58.129C37.617 58.139 37.737 58.168 37.845 58.231L46.634 63.292 46.635 63.292 91.125 89.858 90.34 79.96 38.148 49.908ZM99.914 63.055 107.293 58.807 91.84 49.908 91.19 58.129C91.3123 58.1359 91.4314 58.1708 91.538 58.231L99.914 63.055Z" fill="#09606A"/><path d="M64.904 53.248 73.298 57.861 90.482 47.966C90.6247 47.7882 90.8339 47.6765 91.061 47.657 91.3357 47.6363 91.6026 47.7536 91.773 47.97L109.354 58.091C109.368 58.099 109.379 58.111 109.391 58.118 109.417 58.136 109.441 58.151 109.465 58.171 109.505 58.2052 109.543 58.2427 109.577 58.283 109.597 58.306 109.613 58.332 109.63 58.357 109.639 58.371 109.65 58.38 109.668 58.418 109.682 58.445 109.693 58.473 109.704 58.5 109.725 58.5474 109.739 58.5971 109.748 58.648 109.755 58.6736 109.759 58.6997 109.762 58.726 109.765 58.753 109.764 58.779 109.764 58.806 109.764 58.831 109.765 58.857 109.762 58.884 109.759 58.9103 109.755 58.9364 109.748 58.962 109.744 58.9883 109.738 59.0144 109.73 59.04 109.723 59.063 109.713 59.087 109.704 59.11 109.693 59.137 109.682 59.165 109.657 59.215 109.652 59.225 109.643 59.231 109.637 59.238 109.61 59.2831 109.577 59.325 109.541 59.363 109.529 59.377 109.52 59.388 109.506 59.4 109.458 59.4459 109.405 59.4859 109.348 59.519L91.537 69.777C91.2829 69.9232 90.9701 69.9232 90.716 69.777L37.458 38.143 1.573 58.801 37.43 78.514 53.748 69.119 46.231 64.949 37.843 69.777C37.5893 69.9249 37.2757 69.9249 37.022 69.777 36.207 69.326 20.512 60.67 19.737 60.209 19.223 59.904 18.623 59.637 18.716 58.938 18.827 58.096 19.925 57.676 20.577 57.301 22.591 56.141 24.605 54.983 26.619 53.822L36.789 47.967C36.9317 47.7892 37.1409 47.6775 37.368 47.658 37.6429 47.6375 37.9101 47.7547 38.081 47.971L91.134 78.516 126.997 58.807 91.125 38.15 64.904 53.248ZM127 58.807 91.91 79.949 91.126 89.857 127 69.203Z" fill="#09606A"/><path d="M21.266 58.807 28.647 63.055 37.024 58.231C37.1301 58.1713 37.2484 58.1364 37.37 58.129L36.719 49.908 21.266 58.807ZM1 58.807 1 69.203 37.154 89.857 36.229 79.949Z" fill="#09606A"/></g></svg>